<?xml version="1.0" encoding="UTF-8" standalone="no"?>
<svg
   xmlns:dc="http://purl.org/dc/elements/1.1/"
   xmlns:cc="http://creativecommons.org/ns#"
   xmlns:rdf="http://www.w3.org/1999/02/22-rdf-syntax-ns#"
   xmlns:svg="http://www.w3.org/2000/svg"
   xmlns="http://www.w3.org/2000/svg"
   viewBox="0 0 1248 576"
   height="576"
   width="1248"
   xml:space="preserve"
   id="svg2"
   version="1.1"><metadata
     id="metadata8"><rdf:RDF><cc:Work
         rdf:about=""><dc:format>image/svg+xml</dc:format><dc:type
           rdf:resource="http://purl.org/dc/dcmitype/StillImage" /></cc:Work></rdf:RDF></metadata><defs
     id="defs6" /><g
     transform="matrix(1.3333333,0,0,-1.3333333,0,576)"
     id="g10"><g
       transform="scale(0.1)"
       id="g12"><path
         id="path14"
         style="fill:#d92323;fill-opacity:1;fill-rule:evenodd;stroke:none"
         d="m 2075.22,2554.84 -141.59,141.59 -536.59,-536.59 536.59,-536.43 141.59,141.6 -394.99,394.83 394.99,395" /><path
         id="path16"
         style="fill:#423838;fill-opacity:1;fill-rule:evenodd;stroke:none"
         d="M 2375.61,2924.77 H 2275.4 V 1395.23 h 100.21 v 1529.54" /><path
         id="path18"
         style="fill:#d92323;fill-opacity:1;fill-rule:evenodd;stroke:none"
         d="m 2575.79,2554.84 141.6,141.59 536.59,-536.59 -536.59,-536.43 -141.6,141.6 394.99,394.83 -394.99,395" /><path
         id="path20"
         style="fill:#423838;fill-opacity:1;fill-rule:nonzero;stroke:none"
         d="m 7747.39,2160.13 -215.57,-310.77 h -166.3 l 298.72,430.65 83.15,-119.88" /><path
         id="path22"
         style="fill:#d92323;fill-opacity:1;fill-rule:nonzero;stroke:none"
         d="m 7962.85,2470.64 -132.18,-190.63 h -166.43 l 132.3,190.63 h 166.31" /><path
         id="path24"
         style="fill:#423838;fill-opacity:1;fill-rule:nonzero;stroke:none"
         d="m 7365.64,2470.64 431.02,-621.28 h 166.31 l -431.03,621.28 h -166.3" /><path
         id="path26"
         style="fill:#423838;fill-opacity:1;fill-rule:nonzero;stroke:none"
         d="m 6626.08,1849.36 h 472.97 v 121.62 h -337.2 v 128.21 h 337.2 v 121.62 h -337.2 v 128.21 h 337.2 v 121.62 h -472.97 v -621.28" /><path
         id="path28"
         style="fill:#423838;fill-opacity:1;fill-rule:nonzero;stroke:none"
         d="m 3647.86,1849.36 h 136.64 v 198.82 h 107.35 l 133.17,-198.82 h 159.73 l -151.79,221.9 c 79.06,29.29 133.17,92.22 133.17,192.62 v 1.74 c 0,58.58 -18.61,107.35 -53.24,141.97 -40.84,40.84 -102.14,63.05 -181.07,63.05 h -283.96 z m 136.64,319.45 v 178.47 h 135.77 c 66.53,0 107.36,-30.16 107.36,-88.74 v -1.86 c 0,-52.38 -38.1,-87.87 -104.75,-87.87 H 3784.5" /><path
         id="path30"
         style="fill:#423838;fill-opacity:1;fill-rule:nonzero;stroke:none"
         d="m 5172.77,1849.36 h 136.65 v 240.52 h 336.33 v 124.23 h -336.33 v 132.3 h 336.33 v 124.23 h -472.98 v -621.28" /><path
         id="path32"
         style="fill:#423838;fill-opacity:1;fill-rule:nonzero;stroke:none"
         d="m 5912.83,1849.36 h 446.42 v 124.23 h -309.78 v 497.05 h -136.64 v -621.28" /><path
         id="path34"
         style="fill:#423838;fill-opacity:1;fill-rule:nonzero;stroke:none"
         d="m 4432.96,1849.36 h 472.98 v 121.62 h -337.2 v 128.21 h 337.2 v 121.62 h -337.2 v 128.21 h 337.2 v 121.62 h -472.98 v -621.28" /></g></g></svg>